<svg xmlns="http://www.w3.org/2000/svg" width="149" height="91" viewBox="0 0 149 91" fill="none">
  <g clip-path="url(#clip0_1616_16742)">
    <path d="M146.25 90.91C147.708 90.91 148.89 89.728 148.89 88.27C148.89 86.812 147.708 85.63 146.25 85.63C144.792 85.63 143.61 86.812 143.61 88.27C143.61 89.728 144.792 90.91 146.25 90.91Z" fill="#F4F5F7"/>
    <path d="M122.31 90.91C123.768 90.91 124.95 89.728 124.95 88.27C124.95 86.812 123.768 85.63 122.31 85.63C120.852 85.63 119.67 86.812 119.67 88.27C119.67 89.728 120.852 90.91 122.31 90.91Z" fill="#F4F5F7"/>
    <path d="M98.3802 90.91C98.9048 90.912 99.4181 90.7583 99.8552 90.4683C100.292 90.1783 100.634 89.7651 100.836 89.281C101.038 88.797 101.092 88.2639 100.991 87.7492C100.889 87.2345 100.638 86.7613 100.268 86.3897C99.8975 86.0181 99.4253 85.7647 98.911 85.6616C98.3967 85.5586 97.8633 85.6105 97.3785 85.8107C96.8937 86.011 96.4793 86.3507 96.1876 86.7867C95.896 87.2227 95.7402 87.7354 95.7402 88.26C95.7402 88.9611 96.0181 89.6336 96.5129 90.1303C97.0078 90.627 97.6792 90.9073 98.3802 90.91Z" fill="#F4F5F7"/>
    <path d="M74.4498 90.91C74.9739 90.91 75.4863 90.7546 75.9221 90.4634C76.3579 90.1722 76.6975 89.7583 76.8981 89.2741C77.0986 88.7899 77.1511 88.257 77.0488 87.743C76.9466 87.2289 76.6942 86.7568 76.3236 86.3862C75.953 86.0156 75.4808 85.7632 74.9668 85.6609C74.4527 85.5587 73.9199 85.6111 73.4357 85.8117C72.9514 86.0123 72.5376 86.3519 72.2465 86.7877C71.9553 87.2235 71.7998 87.7358 71.7998 88.26C71.7998 88.608 71.8683 88.9526 72.0015 89.2741C72.1346 89.5956 72.3299 89.8877 72.5759 90.1338C72.822 90.3799 73.1142 90.5752 73.4357 90.7083C73.7572 90.8415 74.1018 90.91 74.4498 90.91Z" fill="#F4F5F7"/>
    <path d="M50.5101 90.91C51.9681 90.91 53.1501 89.728 53.1501 88.27C53.1501 86.812 51.9681 85.63 50.5101 85.63C49.0521 85.63 47.8701 86.812 47.8701 88.27C47.8701 89.728 49.0521 90.91 50.5101 90.91Z" fill="#F4F5F7"/>
    <path d="M27.5901 90.5955C28.9386 90.0411 29.5823 88.4984 29.0279 87.1499C28.4735 85.8014 26.9308 85.1577 25.5823 85.7122C24.2338 86.2666 23.5901 87.8092 24.1445 89.1577C24.6989 90.5062 26.2416 91.1499 27.5901 90.5955Z" fill="#F4F5F7"/>
    <path d="M2.65017 85.6601C2.1252 85.6581 1.61153 85.8121 1.17421 86.1025C0.736895 86.3929 0.395678 86.8067 0.193868 87.2913C-0.00794293 87.776 -0.0612624 88.3096 0.0406694 88.8246C0.142601 89.3396 0.395167 89.8126 0.766377 90.1839C1.13759 90.5551 1.61065 90.8076 2.12563 90.9096C2.64061 91.0115 3.17433 90.9582 3.65896 90.7564C4.14359 90.5546 4.55737 90.2134 4.8478 89.7761C5.13822 89.3388 5.29216 88.825 5.29018 88.3001C5.28755 87.6007 5.00858 86.9307 4.51406 86.4362C4.01953 85.9416 3.34953 85.6627 2.65017 85.6601Z" fill="#F4F5F7"/>
    <path d="M146.25 69.5C147.708 69.5 148.89 68.318 148.89 66.86C148.89 65.4019 147.708 64.22 146.25 64.22C144.792 64.22 143.61 65.4019 143.61 66.86C143.61 68.318 144.792 69.5 146.25 69.5Z" fill="#F4F5F7"/>
    <path d="M122.31 69.5C123.768 69.5 124.95 68.318 124.95 66.86C124.95 65.4019 123.768 64.22 122.31 64.22C120.852 64.22 119.67 65.4019 119.67 66.86C119.67 68.318 120.852 69.5 122.31 69.5Z" fill="#F4F5F7"/>
    <path d="M98.3803 69.5001C98.9052 69.5021 99.419 69.3481 99.8563 69.0576C100.294 68.7672 100.635 68.3534 100.837 67.8688C101.038 67.3842 101.092 66.8505 100.99 66.3355C100.888 65.8206 100.635 65.3474 100.264 64.9762C99.893 64.605 99.4198 64.3524 98.9048 64.2505C98.3898 64.1486 97.8562 64.2019 97.3716 64.4037C96.887 64.6055 96.4732 64.9467 96.1828 65.3841C95.8923 65.8214 95.7383 66.3351 95.7403 66.8601C95.7429 67.5594 96.022 68.2294 96.5165 68.7239C97.011 69.2184 97.6809 69.4974 98.3803 69.5001Z" fill="#F4F5F7"/>
    <path d="M74.4498 69.5001C74.9744 69.5001 75.4871 69.3444 75.9231 69.0528C76.3591 68.7611 76.6988 68.3466 76.8991 67.8618C77.0993 67.377 77.1512 66.8437 77.0481 66.3294C76.9451 65.815 76.6917 65.3429 76.3201 64.9727C75.9485 64.6025 75.4753 64.3509 74.9606 64.2498C74.4459 64.1487 73.9128 64.2026 73.4287 64.4047C72.9447 64.6068 72.5316 64.948 72.2416 65.3851C71.9516 65.8222 71.7978 66.3355 71.7998 66.8601C71.7998 67.2076 71.8684 67.5517 72.0017 67.8726C72.135 68.1936 72.3304 68.4851 72.5766 68.7304C72.8228 68.9756 73.115 69.1699 73.4364 69.302C73.7579 69.434 74.1023 69.5014 74.4498 69.5001Z" fill="#F4F5F7"/>
    <path d="M50.5101 69.5C51.9681 69.5 53.1501 68.318 53.1501 66.86C53.1501 65.4019 51.9681 64.22 50.5101 64.22C49.0521 64.22 47.8701 65.4019 47.8701 66.86C47.8701 68.318 49.0521 69.5 50.5101 69.5Z" fill="#F4F5F7"/>
    <path d="M27.593 69.1931C28.9416 68.6387 29.5853 67.0961 29.0308 65.7475C28.4764 64.399 26.9337 63.7553 25.5852 64.3098C24.2367 64.8642 23.593 66.4068 24.1475 67.7554C24.7019 69.1039 26.2445 69.7476 27.593 69.1931Z" fill="#F4F5F7"/>
    <path d="M2.65004 69.5001C3.17459 69.5001 3.68731 69.3444 4.12331 69.0528C4.55931 68.7611 4.89899 68.3466 5.09926 67.8618C5.29954 67.377 5.3515 66.8437 5.24843 66.3294C5.14537 65.815 4.89189 65.3429 4.52028 64.9727C4.14867 64.6025 3.67561 64.3509 3.16091 64.2498C2.6462 64.1487 2.11309 64.2026 1.62905 64.4047C1.145 64.6068 0.731771 64.948 0.441791 65.3851C0.151812 65.8222 -0.00196055 66.3355 1.88721e-05 66.8601C1.63788e-05 67.2076 0.0686259 67.5517 0.201923 67.8726C0.33522 68.1936 0.530667 68.4851 0.776874 68.7304C1.02308 68.9756 1.31528 69.1699 1.63674 69.302C1.95819 69.434 2.30251 69.5014 2.65004 69.5001Z" fill="#F4F5F7"/>
    <path d="M146.25 48.09C147.708 48.09 148.89 46.908 148.89 45.45C148.89 43.992 147.708 42.81 146.25 42.81C144.792 42.81 143.61 43.992 143.61 45.45C143.61 46.908 144.792 48.09 146.25 48.09Z" fill="#F4F5F7"/>
    <path d="M122.31 48.09C123.768 48.09 124.95 46.908 124.95 45.45C124.95 43.992 123.768 42.81 122.31 42.81C120.852 42.81 119.67 43.992 119.67 45.45C119.67 46.908 120.852 48.09 122.31 48.09Z" fill="#F4F5F7"/>
    <path d="M98.3802 48.1C98.9048 48.102 99.4181 47.9483 99.8552 47.6583C100.292 47.3683 100.634 46.9551 100.836 46.471C101.038 45.987 101.092 45.4539 100.991 44.9392C100.889 44.4245 100.638 43.9513 100.268 43.5797C99.8975 43.2081 99.4253 42.9547 98.911 42.8516C98.3967 42.7486 97.8633 42.8005 97.3785 43.0008C96.8937 43.201 96.4793 43.5407 96.1876 43.9767C95.896 44.4127 95.7402 44.9254 95.7402 45.45C95.7402 46.1511 96.0181 46.8236 96.5129 47.3203C97.0078 47.817 97.6792 48.0973 98.3802 48.1Z" fill="#F4F5F7"/>
    <path d="M74.4498 48.1C74.9739 48.1 75.4863 47.9446 75.9221 47.6534C76.3579 47.3622 76.6975 46.9483 76.8981 46.4641C77.0986 45.9799 77.1511 45.447 77.0488 44.933C76.9466 44.4189 76.6942 43.9467 76.3236 43.5761C75.953 43.2055 75.4808 42.9532 74.9668 42.8509C74.4527 42.7487 73.9199 42.8011 73.4357 43.0017C72.9514 43.2023 72.5376 43.5419 72.2465 43.9777C71.9553 44.4135 71.7998 44.9258 71.7998 45.45C71.7998 45.798 71.8683 46.1426 72.0015 46.4641C72.1346 46.7856 72.3299 47.0777 72.5759 47.3238C72.822 47.5699 73.1142 47.7651 73.4357 47.8983C73.7572 48.0314 74.1018 48.1 74.4498 48.1Z" fill="#F4F5F7"/>
    <path d="M50.5101 48.09C51.9681 48.09 53.1501 46.908 53.1501 45.45C53.1501 43.992 51.9681 42.81 50.5101 42.81C49.0521 42.81 47.8701 43.992 47.8701 45.45C47.8701 46.908 49.0521 48.09 50.5101 48.09Z" fill="#F4F5F7"/>
    <path d="M27.5911 47.7915C28.9396 47.237 29.5833 45.6944 29.0289 44.3459C28.4744 42.9974 26.9318 42.3537 25.5833 42.9081C24.2348 43.4626 23.591 45.0052 24.1455 46.3537C24.6999 47.7022 26.2426 48.3459 27.5911 47.7915Z" fill="#F4F5F7"/>
    <path d="M2.65002 48.1C3.17414 48.1 3.68652 47.9446 4.12231 47.6534C4.5581 47.3622 4.89769 46.9483 5.09827 46.4641C5.29884 45.9799 5.3514 45.447 5.24915 44.933C5.14689 44.4189 4.89454 43.9467 4.52393 43.5761C4.15332 43.2055 3.68104 42.9532 3.16699 42.8509C2.65294 42.7487 2.12021 42.8011 1.63599 43.0017C1.15176 43.2023 0.737841 43.5419 0.446655 43.9777C0.15547 44.4135 0 44.9258 0 45.45C0 46.1528 0.279274 46.8268 0.776245 47.3238C1.27322 47.8208 1.9472 48.1 2.65002 48.1Z" fill="#F4F5F7"/>
    <path d="M146.25 26.69C147.708 26.69 148.89 25.508 148.89 24.05C148.89 22.5919 147.708 21.41 146.25 21.41C144.792 21.41 143.61 22.5919 143.61 24.05C143.61 25.508 144.792 26.69 146.25 26.69Z" fill="#F4F5F7"/>
    <path d="M122.31 26.69C123.768 26.69 124.95 25.508 124.95 24.05C124.95 22.5919 123.768 21.41 122.31 21.41C120.852 21.41 119.67 22.5919 119.67 24.05C119.67 25.508 120.852 26.69 122.31 26.69Z" fill="#F4F5F7"/>
    <path d="M98.3803 26.66C98.9052 26.662 99.419 26.508 99.8563 26.2175C100.294 25.9271 100.635 25.5133 100.837 25.0287C101.038 24.5441 101.092 24.0104 100.99 23.4954C100.888 22.9805 100.635 22.5074 100.264 22.1362C99.893 21.765 99.4198 21.5124 98.9048 21.4104C98.3898 21.3085 97.8562 21.3618 97.3716 21.5636C96.887 21.7654 96.4732 22.1066 96.1828 22.544C95.8923 22.9813 95.7383 23.495 95.7403 24.02C95.7429 24.7193 96.022 25.3893 96.5165 25.8839C97.011 26.3784 97.6809 26.6574 98.3803 26.66Z" fill="#F4F5F7"/>
    <path d="M74.4498 26.66C74.9744 26.66 75.4871 26.5043 75.9231 26.2127C76.3591 25.921 76.6988 25.5066 76.8991 25.0218C77.0993 24.537 77.1512 24.0037 77.0481 23.4893C76.9451 22.975 76.6917 22.5029 76.3201 22.1327C75.9485 21.7624 75.4753 21.5108 74.9606 21.4097C74.4459 21.3086 73.9128 21.3625 73.4287 21.5646C72.9447 21.7667 72.5316 22.1079 72.2416 22.545C71.9516 22.9821 71.7978 23.4954 71.7998 24.02C71.7998 24.3675 71.8684 24.7117 72.0017 25.0326C72.135 25.3536 72.3304 25.645 72.5766 25.8903C72.8228 26.1356 73.115 26.3299 73.4364 26.4619C73.7579 26.594 74.1023 26.6613 74.4498 26.66Z" fill="#F4F5F7"/>
    <path d="M50.5101 26.69C51.9681 26.69 53.1501 25.508 53.1501 24.05C53.1501 22.5919 51.9681 21.41 50.5101 21.41C49.0521 21.41 47.8701 22.5919 47.8701 24.05C47.8701 25.508 49.0521 26.69 50.5101 26.69Z" fill="#F4F5F7"/>
    <path d="M27.594 26.3891C28.9425 25.8347 29.5863 24.292 29.0318 22.9435C28.4774 21.595 26.9347 20.9513 25.5862 21.5057C24.2377 22.0602 23.594 23.6028 24.1484 24.9513C24.7029 26.2998 26.2455 26.9436 27.594 26.3891Z" fill="#F4F5F7"/>
    <path d="M2.65004 26.66C3.17459 26.66 3.68731 26.5043 4.12331 26.2127C4.55931 25.921 4.89899 25.5066 5.09926 25.0218C5.29954 24.537 5.3515 24.0037 5.24843 23.4893C5.14537 22.975 4.89189 22.5029 4.52028 22.1327C4.14867 21.7624 3.67561 21.5108 3.16091 21.4097C2.6462 21.3086 2.11309 21.3625 1.62905 21.5646C1.145 21.7667 0.731771 22.1079 0.441791 22.545C0.151812 22.9821 -0.00196055 23.4954 1.88721e-05 24.02C1.63788e-05 24.3675 0.0686259 24.7117 0.201923 25.0326C0.33522 25.3536 0.530667 25.645 0.776874 25.8903C1.02308 26.1356 1.31528 26.3299 1.63674 26.4619C1.95819 26.594 2.30251 26.6613 2.65004 26.66Z" fill="#F4F5F7"/>
    <path d="M146.25 5.28C147.708 5.28 148.89 4.09803 148.89 2.64C148.89 1.18197 147.708 0 146.25 0C144.792 0 143.61 1.18197 143.61 2.64C143.61 4.09803 144.792 5.28 146.25 5.28Z" fill="#F4F5F7"/>
    <path d="M122.31 5.28C123.768 5.28 124.95 4.09803 124.95 2.64C124.95 1.18197 123.768 0 122.31 0C120.852 0 119.67 1.18197 119.67 2.64C119.67 4.09803 120.852 5.28 122.31 5.28Z" fill="#F4F5F7"/>
    <path d="M98.3802 5.29C98.9048 5.29198 99.4181 5.13827 99.8552 4.84829C100.292 4.55831 100.634 4.14508 100.836 3.66103C101.038 3.17698 101.092 2.64388 100.991 2.12917C100.889 1.61446 100.638 1.14134 100.268 0.769734C99.8975 0.398123 99.4253 0.144709 98.911 0.0416453C98.3967 -0.0614187 97.8633 -0.00952083 97.3785 0.190754C96.8937 0.391029 96.4793 0.730702 96.1876 1.16671C95.896 1.60271 95.7402 2.11543 95.7402 2.63997C95.7402 3.34107 96.0181 4.01359 96.5129 4.51027C97.0078 5.00696 97.6792 5.28735 98.3802 5.29Z" fill="#F4F5F7"/>
    <path d="M74.4498 5.28999C74.9739 5.28999 75.4863 5.13458 75.9221 4.8434C76.3579 4.55221 76.6975 4.13835 76.8981 3.65413C77.0986 3.1699 77.1511 2.63705 77.0488 2.123C76.9466 1.60895 76.6942 1.13673 76.3236 0.766126C75.953 0.395516 75.4808 0.143157 74.9668 0.0409059C74.4527 -0.061345 73.9199 -0.00884847 73.4357 0.191724C72.9514 0.392296 72.5376 0.731947 72.2465 1.16774C71.9553 1.60353 71.7998 2.11585 71.7998 2.63997C71.7998 2.98797 71.8683 3.33261 72.0015 3.65413C72.1346 3.97564 72.3299 4.26773 72.5759 4.51381C72.822 4.75988 73.1142 4.95509 73.4357 5.08827C73.7572 5.22144 74.1018 5.28999 74.4498 5.28999Z" fill="#F4F5F7"/>
    <path d="M50.5101 5.28C51.9681 5.28 53.1501 4.09803 53.1501 2.64C53.1501 1.18197 51.9681 0 50.5101 0C49.0521 0 47.8701 1.18197 47.8701 2.64C47.8701 4.09803 49.0521 5.28 50.5101 5.28Z" fill="#F4F5F7"/>
    <path d="M27.592 4.97745C28.9406 4.42301 29.5843 2.88036 29.0298 1.53186C28.4754 0.183354 26.9328 -0.460315 25.5843 0.0941215C24.2358 0.648558 23.592 2.19116 24.1465 3.53966C24.7009 4.88816 26.2435 5.53189 27.592 4.97745Z" fill="#F4F5F7"/>
    <path d="M2.65002 5.28999C3.17414 5.28999 3.68652 5.13458 4.12231 4.8434C4.5581 4.55221 4.89769 4.13835 5.09827 3.65413C5.29884 3.1699 5.3514 2.63705 5.24915 2.123C5.14689 1.60895 4.89454 1.13673 4.52393 0.766126C4.15332 0.395516 3.68104 0.143157 3.16699 0.0409059C2.65294 -0.061345 2.12021 -0.00884847 1.63599 0.191724C1.15176 0.392296 0.737841 0.731947 0.446655 1.16774C0.15547 1.60353 0 2.11585 0 2.63997C0 3.34279 0.279274 4.01683 0.776245 4.51381C1.27322 5.01078 1.9472 5.28999 2.65002 5.28999Z" fill="#F4F5F7"/>
  </g>
  <defs>
    <clipPath id="clip0_1616_16742">
      <rect width="148.89" height="90.91" fill="white"/>
    </clipPath>
  </defs>
</svg>